<svg width="1128" height="768" xmlns="http://www.w3.org/2000/svg" xmlns:xlink="http://www.w3.org/1999/xlink" xml:space="preserve" overflow="hidden"><g transform="translate(-1193 -1176)"><rect x="1601" y="1310" width="73.0002" height="456" stroke="#191F24" stroke-width="10.3125" stroke-miterlimit="8" fill="#193770"/><rect x="1672" y="1310" width="72.9999" height="456" stroke="#191F24" stroke-width="10.3125" stroke-miterlimit="8" fill="#FFC919"/><rect x="1743" y="1310" width="72.9999" height="456" stroke="#191F24" stroke-width="10.3125" stroke-miterlimit="8" fill="#73A3B3"/><rect x="1814" y="1310" width="72.9999" height="456" stroke="#191F24" stroke-width="10.3125" stroke-miterlimit="8" fill="#E35555"/><rect x="1887" y="1310" width="73.0002" height="456" stroke="#191F24" stroke-width="10.3125" stroke-miterlimit="8" fill="#FFC919"/><text fill="#193770" font-family="Arial,Arial_MSFontService,sans-serif" font-weight="700" font-size="37" transform="matrix(1 0 0 1 1493.5 1701)">GDE </text><text fill="#193770" font-family="Arial,Arial_MSFontService,sans-serif" font-weight="700" font-size="37" transform="matrix(1 0 0 1 1439.64 1746)">or plate</text><text fill="#E35555" font-family="Arial,Arial_MSFontService,sans-serif" font-weight="700" font-size="37" transform="matrix(1 0 0 1 1985.79 1701)">GDE </text><text fill="#73A3B3" font-family="Arial,Arial_MSFontService,sans-serif" font-weight="700" font-size="37" transform="matrix(1 0 0 1 1620.69 1228)">Cation exchange </text><text fill="#73A3B3" font-family="Arial,Arial_MSFontService,sans-serif" font-weight="700" font-size="37" transform="matrix(1 0 0 1 1675.69 1273)">membrane </text><text fill="#F1A101" font-family="Arial,Arial_MSFontService,sans-serif" font-weight="700" font-size="37" transform="matrix(1 0 0 1 1504.57 1823)">Non</text><text fill="#F1A101" font-family="Arial,Arial_MSFontService,sans-serif" font-weight="700" font-size="37" transform="matrix(1 0 0 1 1577.33 1823)">-</text><text fill="#F1A101" font-family="Arial,Arial_MSFontService,sans-serif" font-weight="700" font-size="37" transform="matrix(1 0 0 1 1589.94 1823)">aqueous </text><text fill="#F1A101" font-family="Arial,Arial_MSFontService,sans-serif" font-weight="700" font-size="37" transform="matrix(1 0 0 1 1557.28 1868)">electrolyte</text><text fill="#F1A101" font-family="Arial,Arial_MSFontService,sans-serif" font-weight="700" font-size="37" transform="matrix(1 0 0 1 1405.46 1913)">0.3 M </text><text fill="#F1A101" font-family="Arial,Arial_MSFontService,sans-serif" font-weight="700" font-size="37" transform="matrix(1 0 0 1 1508.58 1913)">TEACl</text><text fill="#F1A101" font-family="Arial,Arial_MSFontService,sans-serif" font-weight="700" font-size="37" transform="matrix(1 0 0 1 1630.61 1913)">+ DMF</text><text fill="#C2D2F1" font-family="Arial,Arial_MSFontService,sans-serif" font-weight="700" font-size="37" transform="matrix(1 0 0 1 1618.09 1372)">(</text><text fill="#C2D2F1" font-family="Arial,Arial_MSFontService,sans-serif" font-weight="700" font-size="37" transform="matrix(1 0 0 1 1630.69 1372)">-</text><text fill="#C2D2F1" font-family="Arial,Arial_MSFontService,sans-serif" font-weight="700" font-size="37" transform="matrix(1 0 0 1 1643.3 1372)">)</text><text fill="#861616" font-family="Arial,Arial_MSFontService,sans-serif" font-weight="700" font-size="37" transform="matrix(1 0 0 1 1828.29 1372)">(+)</text><path d="M0 14.4637 130.5 14.4637 130.5 0 178 47.4999 130.5 94.9999 130.5 80.5362 0 80.5362Z" fill="#34545F" fill-rule="evenodd" transform="matrix(-1 0 0 1 1865 1399)"/><text fill="#FFFFFF" font-family="Arial,Arial_MSFontService,sans-serif" font-weight="700" font-size="37" transform="matrix(1 0 0 1 1771.81 1460)">H</text><text fill="#FFFFFF" font-family="Arial,Arial_MSFontService,sans-serif" font-weight="700" font-size="25" transform="matrix(1 0 0 1 1798.73 1449)">+</text><path d="M2104.5 1623.56C2027.15 1623.56 1964.44 1581.45 1964.44 1529.5 1964.44 1484.59 2011.72 1445.94 2077.33 1437.22L2077.33 1423.88 2104.5 1448.88 2077.33 1477.63 2077.33 1464.28C2016.64 1473.19 1979.62 1509.61 1994.62 1545.63 2007.12 1575.62 2052.46 1596.69 2104.5 1596.69Z" fill="#34545F" fill-rule="evenodd"/><text fill="#34545F" font-family="Arial,Arial_MSFontService,sans-serif" font-weight="700" font-size="37" transform="matrix(1 0 0 1 2113.38 1621)">H</text><text fill="#34545F" font-family="Arial,Arial_MSFontService,sans-serif" font-weight="700" font-size="25" transform="matrix(1 0 0 1 2140.31 1629)">2</text><text fill="#34545F" font-family="Arial,Arial_MSFontService,sans-serif" font-weight="700" font-size="37" transform="matrix(1 0 0 1 2154.06 1621)">O</text><text fill="#34545F" font-family="Arial,Arial_MSFontService,sans-serif" font-weight="700" font-size="37" transform="matrix(1 0 0 1 2113.38 1459)">½ O</text><text fill="#34545F" font-family="Arial,Arial_MSFontService,sans-serif" font-weight="700" font-size="25" transform="matrix(1 0 0 1 2183.85 1467)">2</text><text fill="#34545F" font-family="Arial,Arial_MSFontService,sans-serif" font-weight="700" font-size="37" transform="matrix(1 0 0 1 2207.92 1459)">+ </text><text fill="#34545F" font-family="Arial,Arial_MSFontService,sans-serif" font-weight="700" font-size="37" transform="matrix(1 0 0 1 2113.38 1504)">2e</text><text fill="#34545F" font-family="Arial,Arial_MSFontService,sans-serif" font-weight="700" font-size="25" transform="matrix(1 0 0 1 2154.63 1493)">-</text><text fill="#34545F" font-family="Arial,Arial_MSFontService,sans-serif" font-weight="700" font-size="37" transform="matrix(1 0 0 1 2172.97 1504)">+ 2H</text><text fill="#34545F" font-family="Arial,Arial_MSFontService,sans-serif" font-weight="700" font-size="25" transform="matrix(1 0 0 1 2252.6 1493)">+</text><text fill="#34545F" font-family="Arial,Arial_MSFontService,sans-serif" font-weight="700" font-size="37" transform="matrix(1 0 0 1 1258.81 1621)">2CO</text><text fill="#34545F" font-family="Arial,Arial_MSFontService,sans-serif" font-weight="700" font-size="25" transform="matrix(1 0 0 1 1335.58 1629)">2</text><text fill="#34545F" font-family="Arial,Arial_MSFontService,sans-serif" font-weight="700" font-size="37" transform="matrix(1 0 0 1 1359.64 1621)">+ 2e</text><text fill="#34545F" font-family="Arial,Arial_MSFontService,sans-serif" font-weight="700" font-size="25" transform="matrix(1 0 0 1 1432.97 1610)">-</text><path d="M13.4376 154C13.4376 76.3695 55.5507 13.4376 107.5 13.4376 152.437 13.4376 191.098 60.9363 199.787 126.821L213.136 126.821 188.125 154 159.386 126.821 172.739 126.821C163.868 65.8537 127.468 28.5984 91.4376 43.6089 61.4145 56.1167 40.3125 101.681 40.3125 154Z" fill="#34545F" fill-rule="evenodd" transform="matrix(-6.12323e-17 -1 -1 6.12323e-17 1611 1637)"/><text fill="#34545F" font-family="Arial,Arial_MSFontService,sans-serif" font-weight="700" font-size="37" transform="matrix(1 0 0 1 1294.62 1459)">(COO)</text><text fill="#34545F" font-family="Arial,Arial_MSFontService,sans-serif" font-weight="700" font-size="25" transform="matrix(1 0 0 1 1405.19 1467)">2</text><text fill="#34545F" font-family="Arial,Arial_MSFontService,sans-serif" font-weight="700" font-size="25" transform="matrix(1 0 0 1 1418.94 1448)">2</text><text fill="#34545F" font-family="Arial,Arial_MSFontService,sans-serif" font-weight="700" font-size="25" transform="matrix(1 0 0 1 1432.69 1448)">-</text><text fill="#F1A101" font-family="Arial,Arial_MSFontService,sans-serif" font-weight="700" font-size="37" transform="matrix(1 0 0 1 1893.2 1823)">Aqueous electrolyte</text><text fill="#F1A101" font-family="Arial,Arial_MSFontService,sans-serif" font-weight="700" font-size="37" transform="matrix(1 0 0 1 1893.2 1868)">0.1 M H</text><text fill="#F1A101" font-family="Arial,Arial_MSFontService,sans-serif" font-weight="700" font-size="25" transform="matrix(1 0 0 1 2023.25 1876)">2</text><text fill="#F1A101" font-family="Arial,Arial_MSFontService,sans-serif" font-weight="700" font-size="37" transform="matrix(1 0 0 1 2037 1868)">SO</text><text fill="#F1A101" font-family="Arial,Arial_MSFontService,sans-serif" font-weight="700" font-size="25" transform="matrix(1 0 0 1 2090.86 1876)">4</text><text fill="#F1A101" font-family="Arial,Arial_MSFontService,sans-serif" font-weight="700" font-size="37" transform="matrix(1 0 0 1 2114.92 1868)">+ water</text></g></svg>